<?xml version="1.0" standalone="no"?>
<!DOCTYPE svg PUBLIC "-//W3C//DTD SVG 20010904//EN"
 "http://www.w3.org/TR/2001/REC-SVG-20010904/DTD/svg10.dtd">
<svg version="1.0" xmlns="http://www.w3.org/2000/svg"
 width="1548.000000pt" height="1548.000000pt" viewBox="0 0 1548.000000 1548.000000"
 preserveAspectRatio="xMidYMid meet">
<metadata>
Created by potrace 1.14, written by Peter Selinger 2001-2017
</metadata>
<g transform="translate(0.000000,1548.000000) scale(0.100000,-0.100000)"
fill="#000000" stroke="none">
<path d="M11415 14074 c-482 -50 -633 -84 -1161 -264 -118 -40 -302 -134 -444
-225 -36 -23 -85 -53 -110 -66 -126 -68 -517 -421 -584 -527 -15 -23 -45 -61
-67 -84 -75 -78 -177 -263 -282 -514 -32 -76 -90 -271 -114 -384 -15 -69 -18
-132 -18 -340 0 -237 2 -261 24 -338 13 -45 27 -84 31 -87 4 -2 26 22 50 56
23 33 55 74 72 92 16 18 41 50 55 72 14 22 37 54 51 70 116 141 504 532 592
598 30 23 80 64 110 92 96 88 491 375 593 431 27 14 -197 -209 -272 -272 -19
-15 -52 -51 -73 -79 -22 -27 -85 -96 -139 -153 -55 -57 -110 -120 -123 -140
-13 -20 -47 -62 -76 -92 -65 -69 -180 -208 -180 -218 0 -4 -21 -30 -46 -57
-25 -28 -120 -149 -210 -270 -90 -121 -173 -231 -184 -244 -24 -28 -43 -61
-38 -67 2 -2 73 -16 158 -31 140 -24 179 -27 395 -28 245 0 304 6 470 46 102
25 253 74 330 107 67 28 253 137 318 185 23 18 62 46 87 62 85 58 430 414 430
445 0 5 14 24 30 42 116 126 371 576 510 897 25 58 50 109 55 115 6 6 37 67
69 136 117 248 166 347 227 455 34 61 66 124 72 140 12 34 57 116 162 295 l73
125 -32 8 c-32 9 -741 18 -811 11z"/>
<path d="M7316 12400 c-3 -19 -12 -80 -21 -135 -22 -139 -75 -337 -147 -550
-24 -73 -263 -558 -293 -594 -11 -14 -52 -75 -90 -136 -81 -129 -220 -325
-265 -375 -18 -19 -44 -53 -58 -75 -30 -48 -87 -119 -160 -199 -29 -32 -64
-75 -76 -95 -13 -20 -63 -79 -112 -131 -49 -52 -109 -120 -134 -150 -24 -30
-84 -95 -132 -145 -49 -49 -97 -103 -108 -120 -11 -16 -57 -66 -102 -111 -99
-96 -342 -352 -416 -438 -29 -33 -65 -68 -80 -77 -15 -9 -51 -45 -81 -80 -29
-35 -103 -116 -163 -180 -60 -64 -117 -129 -127 -145 -10 -16 -40 -51 -67 -79
-68 -68 -164 -181 -198 -232 -16 -24 -32 -43 -36 -43 -9 0 -147 -169 -175
-215 -11 -16 -34 -46 -53 -65 -41 -42 -166 -251 -197 -329 -12 -31 -42 -99
-67 -151 -74 -153 -156 -351 -167 -400 -6 -25 -22 -79 -36 -120 -42 -121 -91
-304 -124 -460 -60 -285 -82 -498 -82 -815 0 -442 57 -785 201 -1215 72 -216
109 -303 195 -461 37 -68 73 -135 79 -149 14 -33 173 -264 201 -293 12 -12 37
-44 55 -72 18 -27 110 -127 204 -221 159 -159 278 -258 436 -364 36 -24 78
-54 93 -66 15 -13 69 -44 120 -70 51 -25 119 -60 152 -77 156 -83 383 -177
426 -177 11 0 75 -16 142 -36 250 -75 516 -129 777 -159 189 -21 564 -34 760
-25 92 3 131 7 88 8 l-78 2 0 144 0 144 -35 6 c-34 7 -35 7 -21 34 26 52 29
72 9 72 -10 0 -70 13 -133 29 -63 16 -134 31 -157 35 -128 19 -472 151 -778
297 -89 43 -298 168 -330 199 -12 11 -26 20 -32 20 -15 0 -134 91 -240 184
-50 45 -106 92 -123 105 -17 13 -62 60 -100 105 -38 44 -95 109 -127 144 -33
34 -70 80 -84 103 -13 22 -46 70 -73 107 -97 132 -162 251 -274 502 -104 232
-138 347 -212 704 -51 244 -65 385 -65 671 0 201 4 285 18 372 29 182 125 543
172 648 13 28 35 79 50 115 52 123 187 401 210 430 13 17 133 217 154 258 16
31 151 234 160 242 13 10 81 108 81 116 1 10 51 78 168 227 45 58 82 110 82
115 0 5 14 25 32 43 17 19 69 81 115 139 188 237 309 379 321 380 6 0 12 4 12
10 0 9 139 175 211 251 19 20 54 63 79 94 25 32 81 98 125 146 44 48 100 113
125 144 25 31 73 86 108 122 35 36 71 78 80 92 23 35 113 154 127 166 20 18
104 141 114 166 5 14 27 54 49 88 40 61 163 305 176 347 4 12 8 199 9 415 2
309 6 425 21 539 14 115 16 174 10 285 -4 77 -8 165 -8 197 -1 31 -4 54 -8 52
-3 -2 -4 5 -1 16 3 12 0 20 -7 20 -8 0 -10 8 -7 23 6 22 -31 119 -64 168 l-17
24 -6 -35z"/>
<path d="M7432 12155 c0 -5 6 -26 13 -45 7 -19 14 -28 14 -20 0 8 -6 29 -14
45 -7 17 -13 26 -13 20z"/>
<path d="M7461 12060 c0 -8 4 -24 9 -35 5 -13 9 -14 9 -5 0 8 -4 24 -9 35 -5
13 -9 14 -9 5z"/>
<path d="M7481 11984 c0 -11 3 -14 6 -6 3 7 2 16 -1 19 -3 4 -6 -2 -5 -13z"/>
<path d="M7492 11940 c0 -14 2 -19 5 -12 2 6 2 18 0 25 -3 6 -5 1 -5 -13z"/>
<path d="M7501 11894 c0 -11 3 -14 6 -6 3 7 2 16 -1 19 -3 4 -6 -2 -5 -13z"/>
<path d="M7512 11845 c0 -16 2 -22 5 -12 2 9 2 23 0 30 -3 6 -5 -1 -5 -18z"/>
<path d="M7522 11780 c0 -19 2 -27 5 -17 2 9 2 25 0 35 -3 9 -5 1 -5 -18z"/>
<path d="M7533 11685 c0 -27 2 -38 4 -22 2 15 2 37 0 50 -2 12 -4 0 -4 -28z"/>
<path d="M7544 11505 c0 -66 1 -92 3 -57 2 34 2 88 0 120 -2 31 -3 3 -3 -63z"/>
<path d="M8997 11466 c-53 -47 -100 -86 -104 -88 -8 -3 -106 -106 -203 -213
-113 -124 -275 -388 -305 -498 -8 -28 -23 -79 -34 -112 -96 -299 -52 -704 119
-1076 39 -84 76 -160 84 -168 8 -9 39 -65 70 -124 31 -60 64 -116 75 -125 10
-9 61 -80 112 -157 106 -160 221 -318 256 -355 14 -13 32 -38 40 -55 15 -28
80 -113 189 -245 25 -30 52 -68 61 -85 9 -16 46 -66 83 -110 83 -100 153 -192
170 -225 7 -14 20 -32 30 -41 26 -26 179 -241 239 -338 29 -47 76 -120 104
-161 52 -77 175 -311 229 -435 17 -38 38 -88 48 -110 37 -83 89 -285 111 -430
36 -232 -5 -569 -93 -783 -17 -40 -27 -76 -24 -79 9 -9 279 268 324 332 167
235 223 327 241 400 5 22 19 66 30 99 41 116 54 219 48 381 -4 118 -10 169
-30 240 -76 274 -76 274 -240 549 -84 140 -178 276 -237 341 -19 22 -52 65
-72 95 -20 30 -76 98 -124 150 -48 52 -97 111 -109 130 -13 19 -62 76 -110
125 -47 50 -105 115 -128 145 -23 30 -81 98 -130 150 -49 52 -100 110 -112
130 -13 19 -42 55 -65 80 -56 60 -160 186 -190 232 -14 21 -29 38 -35 38 -5 0
-17 11 -26 23 -117 162 -159 223 -234 347 -149 244 -147 240 -241 510 -65 188
-84 287 -91 470 -9 238 22 405 120 660 51 130 96 215 185 348 41 61 73 114 71
117 -3 2 -49 -33 -102 -79z"/>
<path d="M7533 11310 c0 -25 2 -35 4 -22 2 12 2 32 0 45 -2 12 -4 2 -4 -23z"/>
<path d="M7522 11220 c0 -19 2 -27 5 -17 2 9 2 25 0 35 -3 9 -5 1 -5 -18z"/>
<path d="M7506 11139 c-4 -23 -5 -44 -2 -46 2 -2 7 14 11 37 4 23 5 43 2 46
-2 3 -7 -14 -11 -37z"/>
<path d="M7492 11060 c0 -14 2 -19 5 -12 2 6 2 18 0 25 -3 6 -5 1 -5 -13z"/>
<path d="M7481 11014 c0 -11 3 -14 6 -6 3 7 2 16 -1 19 -3 4 -6 -2 -5 -13z"/>
<path d="M11675 10999 c-178 -20 -403 -31 -800 -39 -477 -9 -538 -16 -796 -80
-197 -49 -373 -134 -493 -238 -82 -71 -207 -205 -225 -240 -11 -22 -34 -60
-51 -85 -28 -42 -84 -163 -117 -252 -28 -76 -73 -273 -73 -318 l0 -45 108 24
c59 13 168 39 242 59 74 20 166 43 203 51 120 24 611 201 652 234 12 10 115
50 115 44 0 -2 -18 -13 -40 -24 -22 -11 -54 -33 -72 -49 -42 -37 -295 -196
-328 -206 -14 -4 -77 -34 -140 -66 -206 -103 -407 -175 -570 -203 -51 -9 -96
-19 -99 -21 -24 -25 282 -225 343 -225 7 0 48 -11 92 -25 133 -41 248 -58 394
-58 151 0 208 9 395 60 128 35 270 100 360 164 22 16 79 57 127 91 202 145
458 462 600 743 80 158 194 455 247 642 17 58 17 75 2 72 -3 -1 -37 -5 -76
-10z"/>
<path d="M7471 10974 c0 -11 3 -14 6 -6 3 7 2 16 -1 19 -3 4 -6 -2 -5 -13z"/>
<path d="M7456 10924 c-4 -14 -5 -28 -3 -31 3 -2 8 8 11 23 4 14 5 28 3 31 -3
2 -8 -8 -11 -23z"/>
<path d="M7426 10834 c-9 -26 -16 -52 -15 -58 0 -6 9 13 20 43 10 30 17 56 15
58 -2 2 -11 -17 -20 -43z"/>
<path d="M7760 9724 c0 -10 -20 -77 -44 -149 -25 -71 -50 -150 -56 -174 -12
-46 -125 -281 -185 -386 -19 -33 -42 -80 -51 -105 -10 -25 -28 -63 -42 -85
-51 -84 -157 -274 -203 -362 -26 -51 -63 -116 -82 -145 -43 -65 -167 -275
-167 -282 0 -6 -106 -188 -170 -291 -24 -38 -53 -93 -66 -121 -12 -28 -38 -76
-57 -105 -51 -81 -197 -353 -197 -367 0 -7 -21 -54 -46 -105 -64 -129 -161
-373 -180 -454 -9 -37 -22 -90 -30 -118 -45 -167 -65 -435 -45 -590 12 -93 48
-240 82 -334 35 -97 153 -279 249 -386 67 -74 245 -235 260 -235 4 0 48 -25
96 -56 251 -158 471 -227 813 -256 147 -13 355 -1 486 28 39 8 99 20 134 26
114 18 311 102 451 192 47 30 96 60 109 66 41 18 214 178 289 268 75 89 173
241 211 328 35 77 80 283 93 417 9 96 9 152 0 244 -13 129 -51 330 -82 434
-23 77 -135 354 -156 386 -8 13 -30 62 -49 109 -34 85 -130 266 -206 390 -20
34 -40 72 -44 84 -8 25 -84 157 -140 245 -22 33 -57 95 -80 137 -46 88 -114
203 -195 333 -32 50 -66 111 -78 137 -11 26 -36 71 -55 100 -44 67 -172 297
-181 324 -3 11 -29 63 -56 115 -28 52 -73 141 -100 199 -28 58 -55 113 -61
124 -6 10 -17 39 -24 65 -32 111 -125 366 -134 369 -6 2 -11 -4 -11 -14z"/>
<path d="M6761 9104 c-24 -18 -48 -34 -53 -34 -11 0 -196 -151 -256 -209 -23
-22 -46 -41 -51 -41 -12 0 -431 -419 -431 -432 0 -5 -26 -37 -58 -71 -76 -81
-175 -204 -195 -244 -9 -17 -21 -33 -26 -35 -11 -4 -178 -245 -206 -296 -11
-20 -47 -84 -81 -142 -68 -116 -156 -289 -178 -347 -8 -21 -39 -99 -70 -173
-66 -157 -151 -421 -161 -500 -4 -30 -13 -80 -21 -110 -63 -249 -92 -762 -60
-1035 10 -77 30 -198 46 -270 16 -71 32 -146 35 -165 28 -144 195 -506 313
-678 74 -106 239 -292 323 -363 112 -94 273 -201 411 -270 102 -51 381 -134
603 -178 239 -47 532 -51 804 -11 128 19 419 84 452 101 9 4 47 15 86 23 83
17 328 115 494 197 65 32 123 59 128 59 15 0 213 111 334 186 65 41 120 74
124 74 10 0 245 162 293 201 25 21 65 49 90 63 25 14 41 26 37 26 -14 0 -84
-39 -113 -63 -16 -14 -72 -51 -124 -82 -52 -31 -111 -68 -131 -82 -20 -13 -81
-42 -135 -64 -55 -23 -104 -45 -110 -50 -38 -31 -393 -150 -544 -182 -94 -21
-385 -47 -510 -47 -141 0 -391 27 -510 56 -292 69 -662 259 -863 444 -105 95
-220 215 -243 252 -14 21 -32 46 -42 56 -42 43 -183 258 -197 301 -3 12 -30
71 -59 133 -155 329 -218 646 -219 1093 0 437 62 797 208 1211 31 87 63 183
71 213 16 55 136 327 198 448 19 38 53 106 76 153 22 47 74 141 115 210 41 69
81 136 87 150 6 14 59 96 117 183 58 87 121 184 139 215 18 31 49 72 68 91 37
36 60 71 47 70 -4 0 -28 -16 -52 -35z"/>
<path d="M11020 6157 c-57 -237 -208 -569 -347 -767 -48 -69 -96 -137 -105
-152 -10 -15 -42 -53 -71 -85 -30 -32 -85 -92 -123 -133 -38 -41 -97 -100
-132 -130 -45 -40 -81 -85 -127 -161 -62 -103 -178 -268 -237 -339 -16 -19
-55 -67 -87 -106 -67 -80 -196 -212 -286 -292 -134 -120 -412 -314 -512 -358
-32 -14 -98 -45 -148 -69 -184 -88 -511 -189 -643 -199 -31 -2 -122 -12 -202
-21 -113 -13 -204 -16 -410 -14 -146 2 -246 3 -222 1 l42 -3 0 -48 0 -48 -92
18 c-101 21 -247 57 -373 93 -44 13 -102 29 -130 35 -93 22 -197 63 -183 73 9
6 3 8 -15 3 -17 -3 -26 -2 -23 4 6 8 -62 27 -70 18 -14 -14 241 -196 478 -340
15 -10 53 -27 85 -38 32 -12 76 -32 98 -44 65 -37 310 -124 450 -160 211 -54
274 -60 645 -59 294 1 349 4 450 22 388 70 883 272 1128 458 25 20 57 40 70
45 24 9 138 93 157 115 15 17 155 137 182 154 34 23 263 275 305 335 20 30 64
91 99 137 68 91 139 202 139 219 0 6 18 41 40 77 72 122 191 412 203 497 3 17
12 57 20 90 93 354 95 759 7 1133 -11 46 -20 92 -20 102 0 10 -4 21 -9 24 -5
3 -19 -36 -31 -87z"/>
<path d="M6658 3443 c7 -3 16 -2 19 1 4 3 -2 6 -13 5 -11 0 -14 -3 -6 -6z"/>
<path d="M6738 3423 c7 -3 16 -2 19 1 4 3 -2 6 -13 5 -11 0 -14 -3 -6 -6z"/>
<path d="M6778 3413 c6 -2 18 -2 25 0 6 3 1 5 -13 5 -14 0 -19 -2 -12 -5z"/>
<path d="M6828 3403 c6 -2 18 -2 25 0 6 3 1 5 -13 5 -14 0 -19 -2 -12 -5z"/>
<path d="M6878 3393 c6 -2 18 -2 25 0 6 3 1 5 -13 5 -14 0 -19 -2 -12 -5z"/>
<path d="M6928 3383 c7 -3 16 -2 19 1 4 3 -2 6 -13 5 -11 0 -14 -3 -6 -6z"/>
<path d="M6978 3373 c6 -2 18 -2 25 0 6 3 1 5 -13 5 -14 0 -19 -2 -12 -5z"/>
<path d="M7048 3363 c6 -2 18 -2 25 0 6 3 1 5 -13 5 -14 0 -19 -2 -12 -5z"/>
<path d="M7173 3353 c9 -2 25 -2 35 0 9 3 1 5 -18 5 -19 0 -27 -2 -17 -5z"/>
<path d="M7248 3343 c12 -2 32 -2 45 0 12 2 2 4 -23 4 -25 0 -35 -2 -22 -4z"/>
<path d="M7398 2763 c7 -3 16 -2 19 1 4 3 -2 6 -13 5 -11 0 -14 -3 -6 -6z"/>
<path d="M7448 2753 c7 -3 16 -2 19 1 4 3 -2 6 -13 5 -11 0 -14 -3 -6 -6z"/>
<path d="M7568 2733 c7 -3 16 -2 19 1 4 3 -2 6 -13 5 -11 0 -14 -3 -6 -6z"/>
<path d="M7753 2703 c9 -2 25 -2 35 0 9 3 1 5 -18 5 -19 0 -27 -2 -17 -5z"/>
<path d="M7838 2693 c12 -2 30 -2 40 0 9 3 -1 5 -23 4 -22 0 -30 -2 -17 -4z"/>
<path d="M7928 2683 c12 -2 32 -2 45 0 12 2 2 4 -23 4 -25 0 -35 -2 -22 -4z"/>
<path d="M8038 2673 c12 -2 30 -2 40 0 9 3 -1 5 -23 4 -22 0 -30 -2 -17 -4z"/>
<path d="M8183 2663 c15 -2 37 -2 50 0 12 2 0 4 -28 4 -27 0 -38 -2 -22 -4z"/>
<path d="M8298 2463 c7 -3 16 -2 19 1 4 3 -2 6 -13 5 -11 0 -14 -3 -6 -6z"/>
<path d="M8228 2453 c6 -2 18 -2 25 0 6 3 1 5 -13 5 -14 0 -19 -2 -12 -5z"/>
<path d="M8168 2443 c7 -3 16 -2 19 1 4 3 -2 6 -13 5 -11 0 -14 -3 -6 -6z"/>
<path d="M8098 2433 c6 -2 18 -2 25 0 6 3 1 5 -13 5 -14 0 -19 -2 -12 -5z"/>
<path d="M8023 2423 c9 -2 23 -2 30 0 6 3 -1 5 -18 5 -16 0 -22 -2 -12 -5z"/>
<path d="M7938 2413 c12 -2 30 -2 40 0 9 3 -1 5 -23 4 -22 0 -30 -2 -17 -4z"/>
<path d="M7853 2403 c9 -2 25 -2 35 0 9 3 1 5 -18 5 -19 0 -27 -2 -17 -5z"/>
<path d="M7743 2393 c15 -2 37 -2 50 0 12 2 0 4 -28 4 -27 0 -38 -2 -22 -4z"/>
<path d="M7613 2383 c15 -2 39 -2 55 0 15 2 2 4 -28 4 -30 0 -43 -2 -27 -4z"/>
<path d="M6865 2033 c-384 -12 -816 -38 -1140 -68 -421 -40 -874 -119 -995
-176 -81 -38 -110 -64 -110 -100 0 -54 77 -95 269 -144 l100 -25 2628 2 2628
3 97 30 98 30 0 108 0 107 -27 11 c-47 18 -355 78 -530 104 -353 52 -874 93
-1456 115 -239 9 -1325 11 -1562 3z"/>
</g>
</svg>
