<?xml version="1.0" standalone="no"?>
<!DOCTYPE svg PUBLIC "-//W3C//DTD SVG 20010904//EN"
 "http://www.w3.org/TR/2001/REC-SVG-20010904/DTD/svg10.dtd">
<svg version="1.0" xmlns="http://www.w3.org/2000/svg"
 width="537.000000pt" height="537.000000pt" viewBox="0 0 537.000000 537.000000"
 preserveAspectRatio="xMidYMid meet">
<metadata>
Created by potrace 1.14, written by Peter Selinger 2001-2017
</metadata>
<g transform="translate(0.000000,537.000000) scale(0.100000,-0.100000)"
fill="#000000" stroke="none">
<path d="M3930 5315 c-8 -2 -49 -9 -90 -15 -255 -41 -464 -141 -622 -301 -91
-91 -158 -201 -196 -319 -24 -75 -27 -101 -27 -217 0 -77 4 -136 10 -142 7 -7
28 12 67 62 98 124 312 323 393 364 26 13 22 7 -24 -43 -30 -33 -59 -63 -65
-69 -22 -20 -162 -192 -226 -277 -36 -47 -67 -85 -69 -83 -3 4 33 69 67 123
25 39 -2 24 -70 -39 -78 -70 -164 -198 -190 -282 -38 -122 -15 -275 63 -431
54 -107 87 -156 219 -331 285 -375 295 -391 359 -525 59 -124 85 -235 78 -336
-3 -45 -15 -107 -26 -139 -12 -32 -19 -61 -16 -63 10 -10 131 126 177 199 33
52 58 147 58 218 0 177 -107 360 -400 681 -62 68 -183 219 -216 270 -16 25
-32 47 -35 50 -17 13 -81 157 -99 222 -24 85 -26 209 -6 284 14 52 35 98 36
78 0 -7 39 -17 99 -24 232 -28 430 40 595 204 101 102 168 207 289 456 57 118
124 252 150 296 25 45 49 93 53 108 l6 26 -163 -1 c-90 -1 -171 -3 -179 -4z"/>
<path d="M2511 4669 c-12 -66 -32 -137 -51 -184 -99 -243 -233 -425 -603 -817
-71 -76 -143 -154 -160 -173 -16 -19 -33 -32 -38 -29 -5 3 -8 1 -7 -4 3 -9
-31 -52 -110 -141 -167 -187 -242 -335 -312 -611 -28 -109 -33 -147 -37 -300
-5 -161 -3 -186 21 -307 49 -251 141 -429 306 -594 174 -175 371 -274 645
-324 89 -16 202 -20 152 -5 -16 5 -36 7 -45 4 -10 -2 -3 3 13 11 l30 16 -40
-5 c-32 -5 -35 -4 -17 4 14 6 20 14 16 21 -4 7 -3 9 2 6 6 -3 16 -2 24 4 11 6
8 9 -12 9 -16 0 -28 5 -28 11 0 6 -8 8 -17 5 -10 -3 -24 -2 -32 3 -7 5 45 6
120 3 125 -4 137 -3 174 18 l40 22 -32 -6 c-18 -3 -33 -2 -33 3 0 5 -44 24
-97 41 -114 38 -264 109 -350 168 -228 155 -386 409 -440 707 -20 110 -22 337
-4 420 15 70 84 250 120 315 13 25 29 54 35 65 18 33 127 198 152 230 14 17
28 35 32 40 52 72 255 318 292 355 14 14 38 44 54 68 16 23 33 42 37 42 5 0 9
7 9 15 0 8 -5 15 -10 15 -6 0 -13 -7 -16 -15 -9 -23 -21 -18 -26 10 -3 13 -1
22 3 19 17 -10 31 7 18 22 -14 17 -43 19 -33 2 5 -7 3 -8 -6 -3 -10 6 -12 4
-7 -9 4 -9 3 -15 -3 -11 -5 3 -8 -4 -7 -15 1 -12 7 -18 14 -16 7 3 10 -1 6
-10 -3 -7 0 -14 6 -14 6 0 11 -5 11 -11 0 -5 -4 -7 -10 -4 -5 3 -7 0 -4 -8 7
-18 -9 -29 -29 -21 -20 7 -29 56 -13 69 7 6 11 16 9 22 -5 15 32 65 41 56 3
-3 6 1 6 10 0 9 5 19 12 23 7 5 9 2 6 -8 -4 -8 -2 -21 3 -29 6 -10 9 -7 9 13
0 19 4 26 14 22 7 -3 16 2 20 11 3 9 2 14 -3 10 -5 -3 -11 -2 -14 2 -2 5 -2 3
-1 -4 2 -7 -3 -10 -12 -6 -11 4 -12 9 -3 19 6 8 16 11 22 7 6 -4 8 0 4 10 -4
11 -2 14 9 10 10 -4 15 0 14 8 -4 28 0 39 16 39 11 0 14 5 10 17 -4 10 -4 14
0 11 4 -4 21 21 39 55 18 34 38 61 44 60 6 -2 8 4 5 12 -4 9 1 18 11 21 9 4
14 12 11 19 -2 7 1 21 8 31 7 11 19 36 25 57 7 20 16 35 19 33 4 -2 7 6 8 17
0 12 9 60 18 106 13 59 16 102 12 145 -7 64 -35 166 -46 166 -3 0 -12 -32 -19
-71z m-315 -945 c-3 -8 1 -20 9 -28 20 -20 19 -32 -1 -15 -15 12 -16 11 -10
-7 8 -28 -19 -53 -37 -35 -9 10 -8 15 7 26 10 8 15 18 11 24 -3 6 -1 11 6 11
7 0 5 8 -7 22 -10 12 -13 18 -5 13 11 -6 13 -4 7 10 -5 15 -4 16 9 5 9 -7 14
-19 11 -26z m-43 -39 c-3 -9 -8 -14 -10 -11 -3 3 -2 9 2 15 9 16 15 13 8 -4z
m-18 -35 c-3 -5 -11 -10 -16 -10 -6 0 -7 5 -4 10 3 6 11 10 16 10 6 0 7 -4 4
-10z m-35 -35 c14 -19 14 -19 -2 -6 -10 7 -18 18 -18 24 0 6 1 8 3 6 1 -2 9
-13 17 -24z m50 5 c0 -5 -2 -10 -4 -10 -3 0 -8 5 -11 10 -3 6 -1 10 4 10 6 0
11 -4 11 -10z m-62 -23 c8 -10 6 -13 -11 -14 -12 0 -16 1 -9 4 6 3 10 9 6 14
-8 14 2 11 14 -4z m47 -16 c-3 -6 -11 -11 -17 -11 -6 0 -6 6 2 15 14 17 26 13
15 -4z m-30 -29 c-3 -3 -11 0 -18 7 -9 10 -8 11 6 5 10 -3 15 -9 12 -12z m-32
-22 c3 -11 1 -23 -4 -26 -5 -3 -9 6 -9 20 0 31 6 34 13 6z m-93 -84 c0 -3 -4
-8 -10 -11 -5 -3 -10 -1 -10 4 0 6 5 11 10 11 6 0 10 -2 10 -4z m-139 -239
c-10 -9 -11 -8 -5 6 3 10 9 15 12 12 3 -3 0 -11 -7 -18z m346 -1923 c-3 -3
-12 -4 -19 -1 -8 3 -5 6 6 6 11 1 17 -2 13 -5z m-60 -10 c-3 -3 -12 -4 -19 -1
-8 3 -5 6 6 6 11 1 17 -2 13 -5z m133 -40 c0 -10 -12 -14 -37 -14 -26 0 -34 3
-24 9 7 5 11 13 8 18 -3 5 7 8 24 5 16 -2 29 -10 29 -18z m-213 0 c-3 -3 -12
-4 -19 -1 -8 3 -5 6 6 6 11 1 17 -2 13 -5z m137 -23 c4 -5 -1 -8 -9 -7 -21 3
-31 16 -12 16 9 0 18 -4 21 -9z"/>
<path d="M2180 3661 c0 -7 -4 -9 -10 -6 -5 3 -10 1 -10 -4 0 -6 4 -11 9 -11
13 0 25 20 17 27 -3 4 -6 1 -6 -6z"/>
<path d="M2591 4474 c0 -11 3 -14 6 -6 3 7 2 16 -1 19 -3 4 -6 -2 -5 -13z"/>
<path d="M4035 4224 c-11 -2 -126 -8 -255 -13 -247 -10 -283 -16 -389 -71 -67
-34 -135 -103 -169 -173 -32 -64 -67 -185 -58 -195 12 -11 236 48 344 90 132
52 19 -27 -131 -92 -51 -21 -111 -42 -135 -46 -23 -4 -45 -10 -47 -15 -11 -17
87 -71 167 -91 148 -37 279 -12 412 80 129 88 212 205 295 417 15 36 31 91 31
103 0 12 -22 13 -65 6z"/>
<path d="M2445 4100 c-3 -5 -1 -10 4 -10 6 0 11 5 11 10 0 6 -2 10 -4 10 -3 0
-8 -4 -11 -10z"/>
<path d="M2385 3940 c-3 -6 1 -7 9 -4 18 7 21 14 7 14 -6 0 -13 -4 -16 -10z"/>
<path d="M2433 3928 c-15 -20 -25 -38 -20 -38 3 0 12 11 21 25 17 26 16 35 -1
13z"/>
<path d="M2372 3855 c-14 -16 -28 -22 -40 -18 -13 5 -14 3 -5 -7 6 -7 9 -19 6
-26 -9 -25 4 -15 41 31 39 47 38 61 -2 20z"/>
<path d="M2656 3709 c-41 -124 -93 -223 -321 -614 -87 -149 -170 -320 -200
-410 -39 -115 -45 -257 -16 -353 61 -202 263 -353 504 -378 129 -13 306 27
412 94 69 44 160 143 193 212 82 168 60 357 -69 613 -62 122 -44 90 -196 352
-132 226 -218 399 -249 495 -9 30 -20 59 -24 63 -4 4 -19 -29 -34 -74z"/>
<path d="M2210 3765 c0 -14 21 -55 28 -55 14 0 2 48 -14 54 -8 3 -14 4 -14 1z"/>
<path d="M2309 3547 c-15 -12 -59 -49 -99 -82 -143 -118 -318 -340 -404 -511
-102 -204 -155 -441 -143 -640 24 -388 217 -645 552 -736 117 -32 324 -31 455
1 111 28 187 55 290 106 125 61 306 172 297 182 -3 3 -41 -15 -84 -39 -308
-173 -631 -176 -883 -7 -176 118 -293 309 -330 542 -18 112 -7 315 24 450 46
195 150 426 284 629 87 132 84 128 75 128 -4 0 -20 -11 -34 -23z"/>
<path d="M3830 2499 c-33 -135 -121 -287 -232 -399 -35 -35 -76 -84 -91 -108
-73 -115 -203 -254 -300 -320 -74 -51 -179 -100 -272 -127 -71 -21 -122 -28
-245 -34 -155 -7 -155 -7 -80 -16 74 -8 75 -9 35 -18 -41 -9 -143 3 -219 25
-32 10 -35 13 -20 20 12 5 7 6 -13 2 -22 -4 -33 -2 -33 6 0 6 -4 9 -9 6 -5 -3
-30 2 -55 10 -26 9 -50 13 -53 10 -4 -3 -4 -7 -2 -9 2 -1 25 -19 50 -39 96
-76 241 -141 389 -173 105 -23 322 -13 439 19 225 63 426 199 578 391 84 105
148 251 176 398 14 75 15 276 1 299 -4 7 -10 31 -12 53 -5 61 -18 63 -32 4z
m39 -204 c-1 -63 -6 -115 -10 -115 -4 0 -5 -8 -2 -19 3 -10 0 -22 -6 -25 -6
-4 -11 -20 -11 -37 0 -16 -4 -29 -9 -29 -10 0 -9 5 11 90 17 71 16 62 17 163
0 48 3 87 6 87 3 0 5 -52 4 -115z m-53 -287 c4 -7 3 -8 -4 -4 -7 4 -12 2 -12
-5 0 -7 -3 -10 -6 -6 -6 5 3 27 11 27 2 0 7 -5 11 -12z m-1143 -545 c-7 -2
-19 -2 -25 0 -7 3 -2 5 12 5 14 0 19 -2 13 -5z"/>
<path d="M2430 1520 c0 -5 5 -10 10 -10 6 0 10 5 10 10 0 6 -4 10 -10 10 -5 0
-10 -4 -10 -10z"/>
<path d="M2480 1516 c0 -2 7 -6 15 -10 8 -3 15 -1 15 4 0 6 -7 10 -15 10 -8 0
-15 -2 -15 -4z"/>
<path d="M2428 1163 c34 -2 88 -2 120 0 31 2 3 3 -63 3 -66 0 -92 -1 -57 -3z"/>
<path d="M2405 1043 c-446 -11 -779 -53 -830 -104 l-20 -20 23 -19 c13 -11 40
-24 60 -30 41 -11 1915 -12 1967 -1 26 5 30 11 33 45 2 21 0 42 -5 47 -13 13
-159 39 -300 54 -201 21 -649 35 -928 28z"/>
<path d="M2315 545 c-51 -26 -75 -72 -75 -142 0 -73 9 -99 44 -135 54 -53 164
-45 211 16 36 47 45 146 17 196 -10 19 -31 43 -45 54 -34 25 -113 31 -152 11z
m106 -25 c30 -17 49 -64 49 -125 0 -66 -21 -109 -61 -125 -34 -15 -59 -7 -90
26 -21 22 -24 35 -24 99 0 68 2 76 29 104 31 32 63 39 97 21z"/>
<path d="M3023 553 c-16 -3 -23 -12 -23 -29 0 -27 17 -33 26 -9 9 23 70 19 87
-5 15 -22 12 -66 -6 -77 -6 -4 -27 -9 -46 -12 -47 -8 -53 -31 -9 -31 49 0 78
-24 78 -64 0 -61 -68 -89 -109 -44 -18 19 -21 19 -27 5 -14 -36 3 -47 69 -47
56 0 68 3 91 26 38 39 31 115 -14 129 -20 6 -20 7 5 37 48 57 22 118 -55 123
-25 2 -55 1 -67 -2z"/>
<path d="M3619 533 c-45 -122 -105 -259 -116 -266 -21 -13 -5 -27 33 -27 24 0
34 5 34 15 0 8 -7 15 -15 15 -14 0 -14 3 -1 29 18 33 34 39 98 33 41 -3 48 -7
57 -33 6 -18 6 -29 0 -29 -5 0 -9 -7 -9 -15 0 -11 12 -15 45 -15 25 0 45 2 45
4 0 2 -11 23 -24 47 -13 24 -43 95 -67 157 -24 64 -49 112 -56 112 -8 0 -18
-12 -24 -27z m33 -96 c34 -83 36 -77 -22 -77 -28 0 -50 4 -48 8 2 4 12 31 22
60 11 29 22 52 25 52 4 0 14 -19 23 -43z"/>
<path d="M1280 539 c0 -6 9 -13 20 -16 19 -5 20 -14 20 -128 0 -116 -1 -123
-21 -128 -46 -12 -4 -27 77 -27 77 0 87 2 109 25 35 34 33 78 -4 115 -27 28
-27 29 -10 47 30 29 34 74 9 101 -19 20 -30 22 -110 22 -59 0 -90 -4 -90 -11z
m151 -36 c27 -31 0 -83 -43 -83 -15 0 -18 8 -18 50 0 46 2 50 24 50 13 0 30
-7 37 -17z m-18 -124 c66 -30 49 -109 -24 -109 -17 0 -19 8 -19 60 0 63 4 67
43 49z"/>
<path d="M1820 535 c0 -8 7 -15 15 -15 13 0 15 -21 15 -125 0 -104 -2 -125
-15 -125 -8 0 -15 -7 -15 -15 0 -12 13 -15 55 -15 42 0 55 3 55 15 0 8 -7 15
-15 15 -13 0 -15 20 -15 124 0 117 1 124 21 129 38 10 9 27 -47 27 -41 0 -54
-4 -54 -15z"/>
<path d="M2727 293 c-4 -3 -7 -17 -7 -30 0 -19 5 -23 30 -23 27 0 30 3 30 30
0 25 -4 30 -23 30 -13 0 -27 -3 -30 -7z"/>
<path d="M1187 113 c-14 -13 -6 -41 16 -56 l22 -16 -22 0 c-26 -1 -31 -16 -8
-25 43 -16 64 42 23 62 l-23 11 22 7 c13 3 20 10 17 15 -6 11 -38 12 -47 2z"/>
<path d="M1259 118 c-6 -22 -7 -49 -3 -75 5 -29 10 -33 36 -33 19 0 28 4 25
13 -2 6 -11 11 -20 9 -8 -1 -18 2 -22 8 -6 9 7 14 28 11 14 -2 7 20 -8 25 -22
9 -18 24 5 24 11 0 20 5 20 10 0 8 -58 15 -61 8z"/>
<path d="M1336 74 c-6 -47 -1 -68 14 -59 4 3 6 14 3 25 -7 25 5 26 23 3 13
-17 15 -16 35 7 11 14 18 19 14 12 -7 -14 3 -54 13 -48 10 6 2 106 -8 106 -4
0 -13 -14 -20 -30 -14 -35 -26 -38 -35 -11 -3 11 -12 24 -19 30 -11 9 -15 2
-20 -35z"/>
<path d="M1467 113 c-4 -3 -7 -26 -7 -49 0 -33 4 -44 19 -49 21 -6 73 3 81 15
3 4 16 3 30 -3 42 -17 61 -15 70 7 7 19 9 19 15 3 4 -9 14 -17 22 -17 10 0 12
4 4 17 -6 11 -6 24 0 35 12 22 -16 50 -45 46 -18 -3 -21 -9 -18 -40 5 -68 -16
-55 -42 25 -9 29 -30 15 -44 -31 -11 -34 -19 -42 -38 -42 -28 0 -33 26 -6 33
14 4 14 6 -5 12 -27 8 -21 25 8 25 11 0 17 5 14 10 -7 11 -48 14 -58 3z m213
-28 c0 -8 -4 -15 -10 -15 -5 0 -10 7 -10 15 0 8 5 15 10 15 6 0 10 -7 10 -15z
m-90 -19 c0 -3 -4 -8 -10 -11 -5 -3 -10 -1 -10 4 0 6 5 11 10 11 6 0 10 -2 10
-4z"/>
<path d="M1767 102 c-24 -27 -21 -59 8 -78 39 -26 75 -6 75 40 0 52 -50 75
-83 38z m61 -25 c6 -28 -16 -49 -39 -36 -22 11 -24 30 -7 47 17 17 42 11 46
-11z"/>
<path d="M1900 70 c0 -27 5 -50 10 -50 6 0 10 6 10 14 0 8 10 16 23 18 14 2
23 11 25 27 4 26 -12 41 -45 41 -21 0 -23 -5 -23 -50z m48 12 c2 -7 -3 -12
-12 -12 -9 0 -16 7 -16 16 0 17 22 14 28 -4z"/>
<path d="M1985 108 c-8 -24 0 -93 10 -88 6 2 9 10 7 17 -4 20 12 15 26 -7 7
-12 17 -18 23 -14 7 4 8 9 0 17 -5 5 -7 23 -4 39 4 20 1 33 -8 39 -20 13 -49
11 -54 -3z m45 -23 c0 -8 -4 -15 -9 -15 -13 0 -22 16 -14 24 11 11 23 6 23 -9z"/>
<path d="M2072 68 c3 -53 17 -66 57 -50 13 5 11 7 -8 12 -31 7 -40 30 -12 30
12 0 21 5 21 10 0 6 -6 10 -14 8 -8 -2 -16 2 -18 7 -2 6 7 11 20 13 32 5 17
22 -19 22 -30 0 -30 0 -27 -52z"/>
<path d="M2157 114 c-15 -15 -6 -46 13 -51 24 -6 21 -29 -4 -25 -9 2 -16 -2
-16 -8 0 -5 11 -10 25 -10 35 0 45 29 17 48 -25 16 -29 34 -8 30 8 -2 16 2 18
7 4 12 -35 19 -45 9z"/>
<path d="M2228 74 c-2 -25 -1 -50 2 -55 4 -5 25 -8 48 -6 39 2 42 4 42 32 l0
30 29 -32 c15 -18 31 -30 35 -26 10 10 7 91 -4 98 -6 4 -10 -7 -10 -27 l-1
-33 -27 33 c-32 38 -42 34 -42 -20 0 -34 -3 -38 -24 -38 -32 0 -44 20 -17 27
27 7 27 23 0 23 -11 0 -17 5 -14 10 3 6 15 10 26 10 10 0 19 5 19 10 0 6 -13
10 -29 10 -27 0 -29 -3 -33 -46z"/>
<path d="M2400 111 c0 -5 7 -11 15 -15 9 -3 15 -19 15 -41 0 -19 5 -35 10 -35
6 0 10 18 10 40 0 29 4 40 15 40 8 0 15 5 15 10 0 6 -18 10 -40 10 -22 0 -40
-4 -40 -9z"/>
<path d="M2490 70 c0 -52 4 -56 54 -51 11 1 23 -4 28 -11 5 -10 8 -8 8 5 0 13
-8 17 -35 17 -24 0 -35 5 -35 15 0 8 7 15 15 15 8 0 15 5 15 10 0 6 -7 10 -15
10 -8 0 -15 5 -15 10 0 6 12 10 26 10 14 0 23 4 19 10 -3 6 -19 10 -36 10 -28
0 -29 -1 -29 -50z"/>
<path d="M2646 105 c-20 -21 -21 -59 0 -79 17 -18 24 -19 48 -10 25 9 19 22
-11 26 -22 2 -28 8 -28 28 0 21 4 25 28 23 18 -1 27 2 24 10 -6 19 -43 20 -61
2z"/>
<path d="M2744 112 c-50 -34 -22 -110 36 -96 29 7 40 20 40 51 0 39 -45 66
-76 45z m44 -29 c13 -26 4 -43 -24 -43 -39 0 -32 55 8 59 4 1 11 -7 16 -16z"/>
<path d="M2834 107 c-3 -8 -4 -33 -2 -54 4 -38 4 -38 49 -37 37 0 44 3 47 22
5 33 42 30 42 -4 0 -14 4 -23 10 -19 6 3 10 28 10 56 0 27 -4 49 -10 49 -5 0
-10 -8 -10 -19 0 -26 -38 -35 -42 -10 -5 35 -23 15 -21 -24 2 -36 0 -38 -25
-35 -24 3 -27 7 -27 40 0 40 -11 60 -21 35z"/>
<path d="M3014 106 c-3 -8 -4 -31 -2 -52 3 -34 6 -39 31 -42 18 -2 27 1 27 11
0 8 -7 14 -16 13 -9 0 -19 5 -21 12 -3 6 2 12 11 12 9 0 16 5 16 10 0 6 -7 10
-16 10 -8 0 -12 5 -9 10 3 6 15 10 26 10 11 0 17 5 14 10 -9 15 -55 12 -61 -4z"/>
<path d="M3090 65 c0 -30 5 -55 10 -55 6 0 10 10 10 22 l0 21 25 -23 c20 -19
25 -20 25 -7 0 9 -4 19 -10 22 -6 4 -5 13 2 25 15 24 -5 50 -38 50 -22 0 -24
-4 -24 -55z m48 17 c2 -7 -3 -12 -12 -12 -9 0 -16 7 -16 16 0 17 22 14 28 -4z"/>
<path d="M3219 99 c-11 -11 -18 -27 -15 -36 3 -8 6 -19 6 -23 0 -5 9 -14 20
-20 48 -26 95 30 65 76 -19 30 -48 31 -76 3z m59 -29 c4 -25 -13 -41 -35 -33
-17 6 -17 50 0 56 21 9 32 2 35 -23z"/>
<path d="M3354 107 c-9 -24 0 -93 11 -87 6 3 10 12 10 20 0 8 11 17 25 21 l25
7 -22 7 c-31 10 -29 25 2 25 22 0 25 -4 25 -35 0 -28 5 -38 25 -47 33 -15 55
4 55 48 0 27 4 34 20 34 17 0 20 -7 20 -39 0 -22 5 -43 10 -46 6 -4 10 10 10
35 0 27 5 43 15 46 33 13 12 25 -37 22 l-53 -3 -3 -37 c-2 -20 -10 -39 -17
-42 -14 -5 -19 6 -27 58 -4 25 -85 36 -94 13z"/>
<path d="M3618 114 c-10 -10 -10 -66 0 -82 12 -18 49 -23 62 -7 14 17 18 85 5
82 -5 -1 -11 -11 -11 -22 -1 -11 -2 -26 -3 -32 0 -7 -10 -13 -20 -13 -16 0
-20 8 -23 41 -2 22 -6 37 -10 33z"/>
<path d="M3717 113 c-2 -4 -5 -27 -4 -50 0 -30 4 -43 13 -43 8 0 13 3 13 8 -4
23 4 24 21 2 19 -25 40 -23 24 2 -5 7 -9 29 -9 48 0 30 -3 35 -27 38 -14 2
-28 0 -31 -5z m43 -28 c0 -8 -4 -15 -10 -15 -5 0 -10 7 -10 15 0 8 5 15 10 15
6 0 10 -7 10 -15z"/>
<path d="M3812 108 c-21 -21 -15 -76 9 -89 27 -14 65 1 74 31 15 47 -49 92
-83 58z m57 -22 c9 -11 9 -20 2 -34 -14 -27 -51 -18 -51 12 0 37 27 49 49 22z"/>
</g>
</svg>
